HIERARCHY
ROOT root
{
	OFFSET 0.000000 0.000000 0.000000
	CHANNELS 6 Xposition Yposition Zposition Zrotation Yrotation Xrotation
	JOINT lhip
	{
		OFFSET 0.058581 -0.082280 -0.017664
		CHANNELS 3 Zrotation Yrotation Xrotation
		JOINT lknee
		{
			OFFSET 0.043451 -0.386469 0.008037
			CHANNELS 3 Zrotation Yrotation Xrotation
			JOINT lankle
			{
				OFFSET -0.014790 -0.426874 -0.037428
				CHANNELS 3 Zrotation Yrotation Xrotation
				JOINT ltoe
				{
					OFFSET 0.041054 -0.060286 0.122042
					CHANNELS 3 Zrotation Yrotation Xrotation
					End Site
					{
						OFFSET 0.000000 0.000000 0.000000
					}
				}
			}
		}
	}
	JOINT rhip
	{
		OFFSET -0.060310 -0.090513 -0.013543
		CHANNELS 3 Zrotation Yrotation Xrotation
		JOINT rknee
		{
			OFFSET -0.043257 -0.383688 -0.004843
			CHANNELS 3 Zrotation Yrotation Xrotation
			JOINT rankle
			{
				OFFSET 0.019056 -0.420046 -0.034562
				CHANNELS 3 Zrotation Yrotation Xrotation
				JOINT rtoe
				{
					OFFSET -0.034840 -0.062106 0.130323
					CHANNELS 3 Zrotation Yrotation Xrotation
					End Site
					{
						OFFSET 0.000000 0.000000 0.000000
					}
				}
			}
		}
	}
	JOINT lowerback
	{
		OFFSET 0.004439 0.124404 -0.038385
		CHANNELS 3 Zrotation Yrotation Xrotation
		JOINT upperback
		{
			OFFSET 0.004488 0.137956 0.026820
			CHANNELS 3 Zrotation Yrotation Xrotation
			JOINT chest
			{
				OFFSET -0.002265 0.056032 0.002855
				CHANNELS 3 Zrotation Yrotation Xrotation
				JOINT lowerneck
				{
					OFFSET -0.013390 0.211636 -0.033468
					CHANNELS 3 Zrotation Yrotation Xrotation
					JOINT upperneck
					{
						OFFSET 0.010113 0.088937 0.050410
						CHANNELS 3 Zrotation Yrotation Xrotation
						End Site
						{
							OFFSET 0.000000 0.000000 0.000000
						}
					}
				}
				JOINT lclavicle
				{
					OFFSET 0.071702 0.114000 -0.018898
					CHANNELS 3 Zrotation Yrotation Xrotation
					JOINT lshoulder
					{
						OFFSET 0.122921 0.045205 -0.019046
						CHANNELS 3 Zrotation Yrotation Xrotation
						JOINT lelbow
						{
							OFFSET 0.255332 -0.015649 -0.022946
							CHANNELS 3 Zrotation Yrotation Xrotation
							JOINT lwrist
							{
								OFFSET 0.265709 0.012698 -0.007375
								CHANNELS 3 Zrotation Yrotation Xrotation
								End Site
								{
									OFFSET 0.000000 0.000000 0.000000
								}
							}
						}
					}
				}
				JOINT rclavicle
				{
					OFFSET -0.082954 0.112472 -0.023707
					CHANNELS 3 Zrotation Yrotation Xrotation
					JOINT rshoulder
					{
						OFFSET -0.113228 0.046853 -0.008472
						CHANNELS 3 Zrotation Yrotation Xrotation
						JOINT relbow
						{
							OFFSET -0.260127 -0.014369 -0.031269
							CHANNELS 3 Zrotation Yrotation Xrotation
							JOINT rwrist
							{
								OFFSET -0.269108 0.006794 -0.006027
								CHANNELS 3 Zrotation Yrotation Xrotation
								End Site
								{
									OFFSET 0.000000 0.000000 0.000000
								}
							}
						}
					}
				}
			}
		}
	}
}
MOTION
Frames: 7
Frame Time: 0.033333
0.017724 -1.750995 1.000962 -6.897192 2.081685 89.324992 -1.779857 -0.045609 -4.106449 -4.110582 -10.386769 4.750871 5.165435 9.937890 -11.784326 0.000000 -0.000000 0.000000 0.262144 -0.530437 -8.128083 5.384403 -3.001979 14.593939 5.568402 -4.159921 -9.333233 0.000000 -0.000000 0.000000 -0.835529 0.021793 12.406920 1.803728 -1.280585 -4.601660 1.303330 -1.221069 0.122520 5.091720 -13.695051 -0.227691 4.649273 -22.600137 0.800989 -23.662642 2.155813 -0.084994 -53.349961 -6.632858 6.085496 11.934151 -20.597034 -0.537805 -2.044214 -2.166663 -4.394666 21.032433 3.262667 -1.938070 55.573856 7.489431 13.074827 -8.648284 23.293068 2.331614 3.495174 1.399999 -0.677563 
0.018934 -1.747979 1.000954 -7.172606 2.153599 89.268446 -1.919459 -0.492343 -5.426410 -4.371479 -10.022334 6.974607 5.501021 10.453026 -11.896877 0.000000 -0.000000 0.000000 0.288117 -0.197989 -9.313057 5.445726 -2.763789 16.343227 5.848473 -4.638046 -9.275321 0.000000 -0.000000 0.000000 -0.876915 -0.023338 12.750420 1.848489 -1.118478 -4.993329 1.314416 -1.279104 0.751241 5.072847 -12.869303 -1.085918 4.325396 -21.701519 1.454387 -23.374774 2.076239 -0.059662 -53.665179 -6.822786 6.243460 11.990633 -20.870983 -0.377493 -1.921122 -2.214119 -4.868106 20.966847 3.376286 -1.920564 55.475118 7.803020 13.283862 -8.829533 23.652472 2.142116 3.358348 1.409422 -1.127348 
0.020393 -1.743376 1.001123 -7.566337 2.203611 89.311950 -1.933511 -0.814000 -6.973638 -4.839198 -9.551918 9.246101 5.893066 10.832270 -11.914402 0.000000 -0.000000 0.000000 0.247105 -0.018547 -11.209321 5.508074 -2.647307 19.002822 6.082258 -4.862071 -9.431905 0.000000 -0.000000 0.000000 -0.990525 -0.048485 13.194895 1.912346 -0.922031 -5.280514 1.310195 -1.351600 1.111854 5.145172 -11.694940 -2.247073 3.907990 -20.593946 2.488073 -23.224076 2.033380 -0.070682 -53.763398 -6.954942 6.441257 12.038158 -21.193587 -0.356021 -1.577351 -2.306915 -5.055919 21.192322 3.484375 -1.840388 55.086774 8.146248 13.541909 -8.950141 24.034469 1.826951 3.112194 1.540707 -1.362395 
0.023002 -1.733302 1.000652 -8.484588 2.347159 89.665407 -1.613785 -0.832839 -9.581034 -5.752434 -8.739482 11.961432 6.253537 11.301291 -12.152996 0.000000 -0.000000 0.000000 0.019290 0.552466 -15.490542 5.854267 -2.910536 24.640224 6.812376 -4.953814 -10.205370 0.000000 -0.000000 0.000000 -1.116506 -0.220556 14.222369 2.013792 -0.441744 -5.943111 1.220453 -1.265958 1.316578 5.303363 -9.336129 -4.337320 3.262492 -18.554381 4.043785 -23.080079 2.015506 -0.065037 -53.651894 -7.008738 6.744396 12.286137 -21.868273 -0.675206 -0.770924 -2.627383 -5.099823 21.555151 3.631028 -1.641581 54.398997 8.712537 13.984203 -9.059167 24.600442 1.253079 2.709852 1.874558 -1.606143 
0.023806 -1.729413 1.000310 -8.882796 2.437513 89.819511 -1.410141 -0.674697 -10.463573 -6.083039 -8.478823 12.715453 6.333775 11.434723 -12.301582 0.000000 -0.000000 0.000000 -0.106022 0.824098 -17.025719 6.051007 -3.188262 26.685323 7.182730 -4.849495 -10.679983 0.000000 -0.000000 0.000000 -1.124968 -0.303078 14.586068 2.036249 -0.239588 -6.116908 1.187796 -1.180303 1.263128 5.344038 -8.399516 -4.960456 3.091479 -17.715639 4.396579 -23.040871 2.042758 -0.030073 -53.582400 -6.950560 6.783739 12.453336 -22.184783 -0.883984 -0.495993 -2.744019 -5.098453 21.670761 3.687717 -1.514610 54.166250 8.901113 14.074077 -9.098261 24.805281 1.044790 2.600094 1.992518 -1.680352 
0.025083 -1.721348 0.999259 -9.731734 2.660205 90.073276 -0.881799 -0.288296 -12.187142 -6.770621 -7.921315 14.223961 6.404263 11.612915 -12.562968 0.000000 -0.000000 0.000000 -0.450884 1.339383 -19.668896 6.305002 -4.271147 30.682279 7.917731 -4.562742 -12.063211 0.000000 -0.000000 0.000000 -1.088349 -0.449523 15.271553 2.039653 0.155242 -6.283597 1.132705 -0.952877 0.977943 5.335125 -6.393384 -5.863593 2.845060 -15.845512 4.757112 -22.951194 2.186731 0.078886 -53.459672 -6.742577 6.726379 12.918938 -22.908238 -1.378072 0.027329 -2.951007 -5.090446 21.891769 3.836520 -1.150216 53.740396 9.259719 14.122201 -9.205550 25.189901 0.633855 2.391284 2.199301 -1.820238 
0.025846 -1.713136 0.997604 -10.504802 2.850597 90.125179 -0.307770 -0.026187 -13.713626 -7.370945 -7.244247 15.658519 6.465207 11.698597 -12.667947 0.000000 -0.000000 0.000000 -0.909222 1.534986 -21.368966 5.995121 -5.926600 35.134069 8.169370 -4.525261 -13.966086 0.000000 -0.000000 0.000000 -1.024605 -0.516849 15.930567 1.961784 0.463320 -6.308992 1.033444 -0.717573 0.567057 5.138967 -4.074951 -5.658067 2.957183 -13.687197 4.593598 -22.692941 2.446434 0.169090 -53.499354 -6.423313 6.489437 13.487207 -23.609834 -1.768541 0.411536 -2.978891 -5.111037 22.092497 4.044188 -0.684227 53.442507 9.521464 13.985612 -9.298701 25.446940 0.389073 2.254041 2.296363 -1.941178 
